<mxfile host="65bd71144e" modified="2021-03-06T00:05:57.741Z" agent="5.0 (Windows NT 10.0; Win64; x64) AppleWebKit/537.36 (KHTML, like Gecko) Code/1.54.1 Chrome/87.0.4280.141 Electron/11.3.0 Safari/537.36" etag="-QdEzA0hbonG2BaEYCcl" version="14.2.4" type="embed">
    <diagram id="d6VEfntBtZLhdfxlwP3M" name="Page-1">
        <mxGraphModel dx="508" dy="270" grid="1" gridSize="10" guides="1" tooltips="1" connect="1" arrows="1" fold="1" page="1" pageScale="1" pageWidth="827" pageHeight="1169" math="0" shadow="0">
            <root>
                <mxCell id="27XZniPatcMBgUpKy5Sz-0"/>
                <mxCell id="27XZniPatcMBgUpKy5Sz-1" parent="27XZniPatcMBgUpKy5Sz-0"/>
                <mxCell id="Z7It5DSN6mUfiyBGu7ga-1" value="Storage" style="shape=datastore;whiteSpace=wrap;html=1;" parent="27XZniPatcMBgUpKy5Sz-1" vertex="1">
                    <mxGeometry x="324" y="40" width="90" height="110" as="geometry"/>
                </mxCell>
                <mxCell id="0" value="SQL Database?" style="whiteSpace=wrap;html=1;shape=partialRectangle;top=0;left=0;bottom=1;right=0;points=[[0,1],[1,1]];fillColor=none;align=center;verticalAlign=bottom;routingCenterY=0.5;snapToPoint=1;recursiveResize=0;autosize=1;treeFolding=1;treeMoving=1;newEdgeStyle={&quot;edgeStyle&quot;:&quot;entityRelationEdgeStyle&quot;,&quot;startArrow&quot;:&quot;none&quot;,&quot;endArrow&quot;:&quot;none&quot;,&quot;segment&quot;:10,&quot;curved&quot;:1};" vertex="1" parent="27XZniPatcMBgUpKy5Sz-1">
                    <mxGeometry x="460" y="40" width="120" height="20" as="geometry"/>
                </mxCell>
                <mxCell id="1" value="" style="edgeStyle=entityRelationEdgeStyle;startArrow=none;endArrow=none;segment=10;curved=1;exitX=1;exitY=0.5;exitDx=0;exitDy=0;" edge="1" target="0" parent="27XZniPatcMBgUpKy5Sz-1" source="Z7It5DSN6mUfiyBGu7ga-1">
                    <mxGeometry relative="1" as="geometry">
                        <mxPoint x="440" y="80" as="sourcePoint"/>
                    </mxGeometry>
                </mxCell>
                <mxCell id="2" value="Json File?" style="whiteSpace=wrap;html=1;shape=partialRectangle;top=0;left=0;bottom=1;right=0;points=[[0,1],[1,1]];fillColor=none;align=center;verticalAlign=bottom;routingCenterY=0.5;snapToPoint=1;recursiveResize=0;autosize=1;treeFolding=1;treeMoving=1;newEdgeStyle={&quot;edgeStyle&quot;:&quot;entityRelationEdgeStyle&quot;,&quot;startArrow&quot;:&quot;none&quot;,&quot;endArrow&quot;:&quot;none&quot;,&quot;segment&quot;:10,&quot;curved&quot;:1};" vertex="1" parent="27XZniPatcMBgUpKy5Sz-1">
                    <mxGeometry x="475" y="110" width="90" height="20" as="geometry"/>
                </mxCell>
                <mxCell id="3" value="" style="edgeStyle=entityRelationEdgeStyle;startArrow=none;endArrow=none;segment=10;curved=1;exitX=0.956;exitY=0.636;exitDx=0;exitDy=0;exitPerimeter=0;" edge="1" target="2" parent="27XZniPatcMBgUpKy5Sz-1" source="Z7It5DSN6mUfiyBGu7ga-1">
                    <mxGeometry relative="1" as="geometry">
                        <mxPoint x="440" y="150" as="sourcePoint"/>
                    </mxGeometry>
                </mxCell>
                <mxCell id="4" value="TOML?" style="whiteSpace=wrap;html=1;shape=partialRectangle;top=0;left=0;bottom=1;right=0;points=[[0,1],[1,1]];fillColor=none;align=center;verticalAlign=bottom;routingCenterY=0.5;snapToPoint=1;recursiveResize=0;autosize=1;treeFolding=1;treeMoving=1;newEdgeStyle={&quot;edgeStyle&quot;:&quot;entityRelationEdgeStyle&quot;,&quot;startArrow&quot;:&quot;none&quot;,&quot;endArrow&quot;:&quot;none&quot;,&quot;segment&quot;:10,&quot;curved&quot;:1};" vertex="1" parent="27XZniPatcMBgUpKy5Sz-1">
                    <mxGeometry x="195" y="60" width="70" height="20" as="geometry"/>
                </mxCell>
                <mxCell id="5" value="" style="edgeStyle=entityRelationEdgeStyle;startArrow=none;endArrow=none;segment=10;curved=1;exitX=0;exitY=0.7;exitDx=0;exitDy=0;" edge="1" target="4" parent="27XZniPatcMBgUpKy5Sz-1" source="Z7It5DSN6mUfiyBGu7ga-1">
                    <mxGeometry relative="1" as="geometry">
                        <mxPoint x="150" y="100" as="sourcePoint"/>
                    </mxGeometry>
                </mxCell>
                <mxCell id="-nWJ0x38_7MRMfia9ZF0-8" style="edgeStyle=orthogonalEdgeStyle;rounded=0;orthogonalLoop=1;jettySize=auto;html=1;entryX=0.5;entryY=1;entryDx=0;entryDy=0;startArrow=classic;startFill=1;" edge="1" parent="27XZniPatcMBgUpKy5Sz-1" source="7" target="Z7It5DSN6mUfiyBGu7ga-1">
                    <mxGeometry relative="1" as="geometry"/>
                </mxCell>
                <mxCell id="7" value="BaseConfig" style="swimlane;childLayout=stackLayout;horizontal=1;startSize=30;horizontalStack=0;rounded=1;fontSize=14;fontStyle=0;strokeWidth=2;resizeParent=0;resizeLast=1;shadow=0;dashed=0;align=center;" vertex="1" parent="27XZniPatcMBgUpKy5Sz-1">
                    <mxGeometry x="610" y="200" width="160" height="120" as="geometry"/>
                </mxCell>
                <mxCell id="8" value="+ SaveConfig&#10;+ LoadConfig&#10;+ UpdateConfig&#10;+ Config ID" style="align=left;strokeColor=none;fillColor=none;spacingLeft=4;fontSize=12;verticalAlign=top;resizable=0;rotatable=0;part=1;" vertex="1" parent="7">
                    <mxGeometry y="30" width="160" height="90" as="geometry"/>
                </mxCell>
                <mxCell id="-nWJ0x38_7MRMfia9ZF0-13" style="edgeStyle=orthogonalEdgeStyle;rounded=0;orthogonalLoop=1;jettySize=auto;html=1;entryX=0.276;entryY=1.016;entryDx=0;entryDy=0;entryPerimeter=0;startArrow=classic;startFill=1;" edge="1" parent="27XZniPatcMBgUpKy5Sz-1" source="-nWJ0x38_7MRMfia9ZF0-10" target="Z7It5DSN6mUfiyBGu7ga-1">
                    <mxGeometry relative="1" as="geometry"/>
                </mxCell>
                <mxCell id="-nWJ0x38_7MRMfia9ZF0-10" value="BaseGameServer" style="swimlane;childLayout=stackLayout;horizontal=1;startSize=30;horizontalStack=0;rounded=1;fontSize=14;fontStyle=0;strokeWidth=2;resizeParent=0;resizeLast=1;shadow=0;dashed=0;align=center;" vertex="1" parent="27XZniPatcMBgUpKy5Sz-1">
                    <mxGeometry x="70" y="200" width="160" height="120" as="geometry"/>
                </mxCell>
                <mxCell id="-nWJ0x38_7MRMfia9ZF0-11" value="+ SaveConfig&#10;+ LoadConfig&#10;+ UpdateConfig" style="align=left;strokeColor=none;fillColor=none;spacingLeft=4;fontSize=12;verticalAlign=top;resizable=0;rotatable=0;part=1;" vertex="1" parent="-nWJ0x38_7MRMfia9ZF0-10">
                    <mxGeometry y="30" width="160" height="90" as="geometry"/>
                </mxCell>
            </root>
        </mxGraphModel>
    </diagram>
</mxfile>
